<?xml version="1.0" encoding="UTF-8" standalone="no"?> <svg id="Layer_1" data-name="Layer 1" xmlns="http://www.w3.org/2000/svg" viewBox="0 0 128 128"><defs><style>.cls-1{fill:#2e79bd;}.cls-2{fill:#2d3e50;}</style></defs><title>b</title><path class="cls-1" d="M125.59337,76.97083l-27.2233-2.33972a.71544.71544,0,0,1-.42961-1.23328l6.8673-6.47676-1.52436-1.55589-1.01717-1.03806-5.16336-5.36022q-2.98435-3.14546-5.94486-6.30581-2.12084-2.273-4.2178-4.57275Q81.92,42.59389,77.02811,36.97415c-1.62268-1.87923-3.2394-3.76738-4.83227-5.67644-.42355-.50708-.84117-1.02014-1.26175-1.53021l-1.70322.95752L42.65642,45.66325l-4.24167,2.38334-3.03954-3.311L31.572,40.59235,1.62991,7.97758,7.91782,1.84477l32.397,31.26355h.003L59.283,20.77115l9.69734-6.3088,3.51681-2.28786.80538-.522,4.57572,4.009q2.8099,2.46536,5.53324,5.01122c1.82256,1.69428,3.61824,3.40943,5.408,5.13056Q94.17968,30.98,99.38181,36.3c3.484,3.53471,6.90238,7.13206,10.31181,10.73538l5.07388,5.44674.68605.74869,1.794,1.95787,6.5569-6.184a.71544.71544,0,0,1,1.20539.48413l1.35929,26.73292A.71541.71541,0,0,1,125.59337,76.97083Z"/><path class="cls-2" d="M6.83054,123.81562a2.34845,2.34845,0,0,0,2.349,2.3396H25.39766a2.34645,2.34645,0,0,0,2.3396-2.3396V48.1809L6.83054,25.41191Z"/><path class="cls-2" d="M38.93926,123.81562a2.34645,2.34645,0,0,0,2.3396,2.3396H57.50638a2.34645,2.34645,0,0,0,2.3396-2.3396V45.1301L38.93926,56.8749Z"/><path class="cls-2" d="M85.34767,58.09149c-1.44123-1.54416-2.873-3.08827-4.28617-4.65116C77.3275,49.36007,74.04269,45.69158,71.048,42.229v81.58666a2.34645,2.34645,0,0,0,2.3396,2.3396H89.6151a2.34645,2.34645,0,0,0,2.3396-2.3396V65.08219l-.58022-.5989C89.325,62.33082,87.33165,60.21586,85.34767,58.09149Z"/><path class="cls-2" d="M103.1567,83.02232v40.7933a2.34645,2.34645,0,0,0,2.3396,2.3396h16.21815a2.34844,2.34844,0,0,0,2.349-2.3396V84.81912Z"/></svg>