<?xml version="1.0" encoding="UTF-8" standalone="no"?>
<svg
   xmlns:dc="http://purl.org/dc/elements/1.1/"
   xmlns:cc="http://creativecommons.org/ns#"
   xmlns:rdf="http://www.w3.org/1999/02/22-rdf-syntax-ns#"
   xmlns:svg="http://www.w3.org/2000/svg"
   xmlns="http://www.w3.org/2000/svg"
   xmlns:sodipodi="http://sodipodi.sourceforge.net/DTD/sodipodi-0.dtd"
   xmlns:inkscape="http://www.inkscape.org/namespaces/inkscape"
   viewBox="0 0 250 250"
   version="1.1"
   id="svg27"
   sodipodi:docname="Save_Buy_Logo_1.svg"
   width="250"
   height="250"
   inkscape:version="0.92.4 (5da689c313, 2019-01-14)">
  <metadata
     id="metadata31">
    <rdf:RDF>
      <cc:Work
         rdf:about="">
        <dc:format>image/svg+xml</dc:format>
        <dc:type
           rdf:resource="http://purl.org/dc/dcmitype/StillImage" />
        <dc:title></dc:title>
      </cc:Work>
    </rdf:RDF>
  </metadata>
  <sodipodi:namedview
     pagecolor="#ffffff"
     bordercolor="#666666"
     borderopacity="1"
     objecttolerance="10"
     gridtolerance="10"
     guidetolerance="10"
     inkscape:pageopacity="0"
     inkscape:pageshadow="2"
     inkscape:window-width="1858"
     inkscape:window-height="1057"
     id="namedview29"
     showgrid="false"
     inkscape:zoom="0.834386"
     inkscape:cx="168.33597"
     inkscape:cy="173.57969"
     inkscape:window-x="-8"
     inkscape:window-y="-8"
     inkscape:window-maximized="1"
     inkscape:current-layer="svg27" />
  <defs
     id="defs4">
    <style
       id="style2">.cls-1{isolation:isolate;}.cls-2{fill:#61c4fa;}.cls-3{fill:#2a546b;}</style>
  </defs>
  <g
     id="Korb"
     class="cls-1"
     style="isolation:isolate"
     transform="translate(-79.100081,-64.907489)">
    <g
       id="Korb-2"
       data-name="Korb">
      <path
         class="cls-2"
         d="m 272.17,127.43 c -6.08,-0.64 -17.77,3.17 -17.77,3.17 0,0 -39.49,2.54 -95.4,-9.2 -46.46,-9.75 -53.47,-5.17 -55,16.8 -2.25,32.34 20.72,56.8 20.72,56.8 9.05,11 15.14,18.05 45.94,20.91 75,7 82.34,-0.36 82.34,-0.36 12.21,-8.36 5.11,-23 27.05,-67 3.72,-7.55 10.19,-19.2 -7.88,-21.12 z"
         id="path8"
         inkscape:connector-curvature="0"
         style="fill:#61c4fa" />
    </g>
  </g>
  <g
     id="Stange"
     class="cls-1"
     style="isolation:isolate"
     transform="translate(-79.100081,-64.907489)">
    <g
       id="Stange-2"
       data-name="Stange">
      <path
         class="cls-2"
         d="M 230.09,130.28 230,130.2 c 0,0.02 0,0.05 0.09,0.08 z m 48,-39.94 c -5.3,4.89 -10.21,10.15 -21.65,29.86 -6.33,10.9 -24.68,10.49 -26.31,10.08 l 39.27,33.92 c 0,0 11.42,-16.95 14.4,-23.6 10.12,-22.55 19.63,-34.64 19.81,-35.14 7.77,-13.91 -6.98,-32.25 -25.56,-15.12 z"
         id="path12"
         inkscape:connector-curvature="0"
         style="fill:#61c4fa" />
    </g>
  </g>
  <g
     id="Kreis_Kopie"
     data-name="Kreis Kopie"
     class="cls-1"
     style="isolation:isolate"
     transform="translate(-79.100081,-64.907489)">
    <g
       id="Kreis_Kopie-2"
       data-name="Kreis Kopie">
      <path
         class="cls-3"
         d="m 269,226 c 22.22,24.35 -0.3,47.88 -52.33,48.12 -18.94,0.09 -107.66,4.47 -94,-48.12 -44.75,50.2 73.76,81.11 135,63.71 67.5,-19.18 21.7,-62.28 11.33,-63.71 z"
         id="path16"
         inkscape:connector-curvature="0"
         style="fill:#2a546b" />
    </g>
  </g>
  <g
     id="Rollen"
     transform="translate(-79.100081,-64.907489)">
    <g
       id="Ellipse_1"
       data-name="Ellipse 1">
      <ellipse
         class="cls-2"
         cx="165.5"
         cy="239.10001"
         rx="16.1"
         ry="16.299999"
         id="ellipse20"
         style="fill:#61c4fa" />
    </g>
    <g
       id="Ellipse_1-2"
       data-name="Ellipse 1">
      <ellipse
         class="cls-2"
         cx="213"
         cy="241"
         rx="12.8"
         ry="13"
         id="ellipse23"
         style="fill:#61c4fa" />
    </g>
  </g>
</svg>
