<?xml version="1.0" encoding="UTF-8" standalone="no"?>
<svg
   xmlns:dc="http://purl.org/dc/elements/1.1/"
   xmlns:cc="http://creativecommons.org/ns#"
   xmlns:rdf="http://www.w3.org/1999/02/22-rdf-syntax-ns#"
   xmlns:svg="http://www.w3.org/2000/svg"
   xmlns="http://www.w3.org/2000/svg"
   xmlns:sodipodi="http://sodipodi.sourceforge.net/DTD/sodipodi-0.dtd"
   xmlns:inkscape="http://www.inkscape.org/namespaces/inkscape"
   id="Ebene_1"
   data-name="Ebene 1"
   viewBox="0 0 135.08 152.63"
   version="1.1"
   sodipodi:docname="schrift_wir_vs_virus1.svg"
   width="135.08"
   height="152.63"
   inkscape:version="0.92.4 (5da689c313, 2019-01-14)">
  <metadata
     id="metadata31">
    <rdf:RDF>
      <cc:Work
         rdf:about="">
        <dc:format>image/svg+xml</dc:format>
        <dc:type
           rdf:resource="http://purl.org/dc/dcmitype/StillImage" />
        <dc:title></dc:title>
      </cc:Work>
    </rdf:RDF>
  </metadata>
  <sodipodi:namedview
     pagecolor="#ffffff"
     bordercolor="#666666"
     borderopacity="1"
     objecttolerance="10"
     gridtolerance="10"
     guidetolerance="10"
     inkscape:pageopacity="0"
     inkscape:pageshadow="2"
     inkscape:window-width="1858"
     inkscape:window-height="1057"
     id="namedview29"
     showgrid="false"
     inkscape:zoom="1.5462228"
     inkscape:cx="79.540001"
     inkscape:cy="76.315002"
     inkscape:window-x="-8"
     inkscape:window-y="-8"
     inkscape:window-maximized="1"
     inkscape:current-layer="Ebene_1" />
  <defs
     id="defs4">
    <style
       id="style2">
      .cls-1 {
        fill: #69c1ed;
      }

      .cls-2 {
        fill: #2a546b;
      }

      .cls-3 {
        fill: none;
      }
    </style>
  </defs>
  <g
     id="g14">
    <path
       class="cls-1"
       d="m 53,87.5 c 0,-2.9 1.72,-4.81 4.72,-4.81 2.64,0 4.73,1.36 4.73,5 0,4.55 2,6.18 5.17,6.18 3.17,0 5.18,-1.63 5.18,-6.36 0,-5.27 -2,-8.63 -8.54,-14.35 C 55.91,65.8 53.18,60.62 53.18,53.35 c 0,-10 5.18,-15.8 14.9,-15.8 9.72,0 14.55,6.25 14.55,14.45 0,3.18 -1.73,4.82 -4.73,4.82 -3.18,0 -4.72,-2.09 -4.72,-4.82 0,-3.36 -1.82,-5.36 -5,-5.36 -3.18,0 -5,1.73 -5,6.09 0,4.63 2.09,8 8.63,13.72 8.36,7.35 11,12.44 11,20.35 0,10.35 -5.27,16.17 -15.08,16.17 C 57.92,102.97 53,97.13 53,87.5 Z"
       transform="translate(-51.37,-37.54)"
       id="path6"
       inkscape:connector-curvature="0"
       style="fill:#69c1ed" />
    <path
       class="cls-1"
       d="M 86.17,97.68 A 10.16,10.16 0 0 1 86.35,96 L 95,44.35 c 0.73,-4.18 3.63,-6.81 7.81,-6.81 4.18,0 7,2.63 7.72,6.81 L 119.15,96 a 8.46,8.46 0 0 1 0.09,1.46 c 0,3.09 -1.64,5.08 -4.55,5.08 -2.91,0 -4.72,-1.9 -5.17,-4.81 l -1.19,-8.36 v 0.18 H 96.43 L 95.25,98 c -0.45,3.18 -2.18,4.63 -4.72,4.63 -2.36,-0.05 -4.36,-1.63 -4.36,-4.95 z m 21,-16.72 -4.72,-32.34 h -0.18 L 97.61,81 Z"
       transform="translate(-51.37,-37.54)"
       id="path8"
       inkscape:connector-curvature="0"
       style="fill:#69c1ed" />
    <path
       class="cls-1"
       d="M 124.68,97.59 V 43.44 a 4.82,4.82 0 0 1 5,-5 h 17.44 a 4.55,4.55 0 1 1 0,9.09 h -12.44 v 17.71 h 8.9 a 4.55,4.55 0 0 1 0,9.09 h -8.9 v 23.26 a 5,5 0 0 1 -10,0 z"
       transform="translate(-51.37,-37.54)"
       id="path10"
       inkscape:connector-curvature="0"
       style="fill:#69c1ed" />
    <path
       class="cls-1"
       d="M 155.93,97 V 43.44 a 4.82,4.82 0 0 1 5,-5 h 18.26 a 4.55,4.55 0 0 1 0,9.09 h -13.26 v 16.81 h 9.72 a 4.54,4.54 0 0 1 0,9.08 h -9.72 V 93 h 13.26 a 4.55,4.55 0 0 1 0,9.09 h -18.26 a 4.82,4.82 0 0 1 -5,-5.09 z"
       transform="translate(-51.37,-37.54)"
       id="path12"
       inkscape:connector-curvature="0"
       style="fill:#69c1ed" />
  </g>
  <g
     id="g22">
    <path
       class="cls-2"
       d="m 51.39,182.29 v -71.46 a 6.43,6.43 0 0 1 6.67,-6.66 H 71.5 c 13.81,0 19.74,6.42 19.74,19.5 v 3.39 c 0,8.72 -2.66,14.17 -8.6,16.59 v 0.25 c 7.15,2.42 9.94,8.72 9.94,17.68 v 7.27 c 0,13.08 -6.91,20.11 -20.23,20.11 H 58.06 a 6.43,6.43 0 0 1 -6.67,-6.67 z m 18.54,-43.6 c 5,0 8,-2.18 8,-9 V 125 c 0,-6 -2.06,-8.72 -6.78,-8.72 h -6.43 v 22.41 z m 2.42,38.15 c 4.48,0 6.9,-2.06 6.9,-8.36 v -7.38 c 0,-7.88 -2.54,-10.3 -8.6,-10.3 h -5.93 v 26 z"
       transform="translate(-51.37,-37.54)"
       id="path16"
       inkscape:connector-curvature="0"
       style="fill:#2a546b" />
    <path
       class="cls-2"
       d="M 98.75,168.85 V 110.1 c 0,-4.24 2.43,-6.66 6.66,-6.66 4.23,0 6.67,2.42 6.67,6.66 v 59.72 c 0,6.05 2.54,8.23 6.78,8.23 4.24,0 6.78,-2.18 6.78,-8.23 v -60 c 0,-4.12 2.3,-6.42 6.42,-6.42 4.12,0 6.42,2.3 6.42,6.42 v 59 c 0,13.56 -6.78,21.32 -19.86,21.32 -13.08,0 -19.87,-7.73 -19.87,-21.29 z"
       transform="translate(-51.37,-37.54)"
       id="path18"
       inkscape:connector-curvature="0"
       style="fill:#2a546b" />
    <path
       class="cls-2"
       d="m 159.07,183 v -30.14 l -13.2,-39.24 a 10.74,10.74 0 0 1 -0.61,-3.76 c 0,-3.75 2.31,-6.42 6.06,-6.42 4.24,0 5.69,1.94 7.15,6.66 l 7.75,25.2 h 0.24 l 7.75,-25.68 c 1.33,-4.36 3,-6.18 6.79,-6.18 3.51,0 5.57,2.42 5.57,5.94 a 12.3,12.3 0 0 1 -0.61,3.39 L 172.4,152.86 V 183 a 6.67,6.67 0 0 1 -13.33,0 z"
       transform="translate(-51.37,-37.54)"
       id="path20"
       inkscape:connector-curvature="0"
       style="fill:#2a546b" />
  </g>
  <line
     class="cls-3"
     y1="64.290001"
     x2="136.08"
     y2="64.290001"
     id="line24"
     x1="0"
     style="fill:none" />
  <line
     class="cls-3"
     x1="158.61"
     y1="50.68"
     x2="159.08"
     y2="50.68"
     id="line26"
     style="fill:none" />
</svg>
